<?xml version="1.0" encoding="utf-8"?>
<!-- Generator: Adobe Illustrator 22.1.0, SVG Export Plug-In . SVG Version: 6.00 Build 0)  -->
<svg version="1.1" id="Capa_1" xmlns="http://www.w3.org/2000/svg" xmlns:xlink="http://www.w3.org/1999/xlink" x="0px" y="0px"
	 viewBox="0 0 512 512" style="enable-background:new 0 0 512 512;" xml:space="preserve">
<style type="text/css">
	.st0{fill:#FFFFFF;}
</style>
<g>
	<g id="XMLID_1_">
		<g>
			<path class="st0" d="M496,352v128c0,17.7-14.3,32-32,32H48c-17.7,0-32-14.3-32-32V352h64v96h352v-96H496z"/>
			<path class="st0" d="M382.6,233.4c2.6,5.7,1.6,12.4-2.5,17.1l-112,128c-3,3.5-7.4,5.5-12,5.5c-4.6,0-9-2-12-5.5l-112-128
				c-4.1-4.7-5.2-11.4-2.5-17.1c2.6-5.7,8.3-9.4,14.6-9.4h64V16c0-8.8,7.2-16,16-16h64c8.8,0,16,7.2,16,16v208h64
				C374.3,224,380,227.6,382.6,233.4z"/>
		</g>
		<g>
		</g>
	</g>
</g>
</svg>
