<?xml version="1.0" encoding="utf-8"?>
<!-- Generator: Adobe Illustrator 23.0.1, SVG Export Plug-In . SVG Version: 6.00 Build 0)  -->
<svg version="1.1" id="Calque_1" xmlns="http://www.w3.org/2000/svg" xmlns:xlink="http://www.w3.org/1999/xlink" x="0px" y="0px"
	 viewBox="0 0 250 250" style="enable-background:new 0 0 250 250;" xml:space="preserve">
<style type="text/css">
	.st0{fill:#00B4DB;}
	.st1{fill:#FFFFFF;}
</style>
<path class="st0" d="M0,0l115,115h15l12,27l108,108V0H0z"/>
<path class="st1" d="M128.3,109c-14.5-9.3-9.3-19.4-9.3-19.4c3-6.9,1.5-11,1.5-11c-1.3-6.6,2.9-2.3,2.9-2.3c3.9,4.6,2.1,11,2.1,11
	c-2.6,10.3,5.1,14.6,8.9,15.9"/>
<path class="st1" d="M115,115c-0.1,0.1,3.7,1.5,4.8,0.4l13.9-13.8c3.2-2.4,6.2-3.2,8.5-3c-8.4-10.6-14.7-24.2,1.6-40.6
	c4.7-4.6,10.2-6.8,15.9-7c0.6-1.6,3.5-7.4,11.7-10.9c0,0,4.7,2.4,7.4,16.1c4.3,2.4,8.4,5.6,12.1,9.2c3.6,3.6,6.8,7.8,9.2,12.2
	c13.7,2.6,16.2,7.3,16.2,7.3c-3.6,8.2-9.4,11.1-10.9,11.7c-0.3,5.8-2.4,11.2-7.1,15.9c-16.4,16.4-30,10-40.6,1.6
	c0.2,2.8-1,6.8-5,10.8L141,136.5c-1.2,1.2,0.6,5.4,0.8,5.3L115,115z"/>
</svg>
