<svg xmlns="http://www.w3.org/2000/svg" viewBox="0 0 20 20"><title>Fichier 7</title><g id="Calque_2" data-name="Calque 2"><g id="Calque_1-2" data-name="Calque 1"><circle cx="10" cy="10" r="10" style="fill:#00b4db"/><path d="M15,14.15l-.87-1.44a4.29,4.29,0,0,1-.61-2.2V9.25A3.53,3.53,0,0,0,11,5.87V5A1,1,0,1,0,9,5v.9A3.53,3.53,0,0,0,6.48,9.25v1.26a4.29,4.29,0,0,1-.61,2.2L5,14.15a.28.28,0,0,0,0,.25.26.26,0,0,0,.22.13h9.56A.26.26,0,0,0,15,14.4.28.28,0,0,0,15,14.15Z" style="fill:#fff"/><path d="M8.42,15a1.74,1.74,0,0,0,3.16,0Z" style="fill:#fff"/></g></g></svg>